<svg width="24" height="24" viewBox="0 0 24 24" fill="none" xmlns="http://www.w3.org/2000/svg">
<path fill-rule="evenodd" clip-rule="evenodd" d="M24 12C24 18.6274 18.6274 24 12 24C5.37258 24 -4.69686e-07 18.6274 -1.04907e-06 12C-1.62846e-06 5.37259 5.37258 1.62846e-06 12 1.04907e-06C18.6274 4.69686e-07 24 5.37258 24 12ZM12 22.5C17.799 22.5 22.5 17.799 22.5 12C22.5 6.20101 17.799 1.5 12 1.5C6.20101 1.5 1.5 6.20101 1.5 12C1.5 17.799 6.20101 22.5 12 22.5Z" fill="#EA580C"/>
<path fill-rule="evenodd" clip-rule="evenodd" d="M17.6526 15.6328C17.3032 15.8551 16.8396 15.7521 16.6172 15.4026L12.0008 8.14758L11.9992 8.14758L7.38276 15.4026C7.1604 15.7521 6.69684 15.8551 6.34737 15.6328C5.9979 15.4104 5.89487 14.9468 6.11724 14.5974L10.7348 7.34042C11.0106 6.90852 11.4876 6.64712 12 6.64712C12.5124 6.64712 12.9894 6.90852 13.2652 7.34042L17.8828 14.5974C18.1051 14.9468 18.0021 15.4104 17.6526 15.6328Z" fill="#EA580C"/>
</svg>
