<svg width="9" height="18" viewBox="0 0 9 18" fill="none" xmlns="http://www.w3.org/2000/svg">
<path d="M1.55342 9.04653C1.63131 9.14971 1.73259 9.2532 1.81882 9.33838C1.92091 9.43923 3.60802 11.2416 5.24215 12.9888C6.06538 13.869 6.88308 14.7438 7.49498 15.3985L8.5127 16.4875C8.79548 16.7902 8.77966 17.2651 8.477 17.5479C8.17433 17.8307 7.69966 17.8145 7.41687 17.5118L6.39911 16.4227C5.78728 15.7681 4.96969 14.8935 4.14662 14.0134C3.32352 13.1334 2.49507 12.248 1.86146 11.5719C1.54462 11.2338 1.27675 10.9483 1.08272 10.742L0.814331 10.4617C0.724482 10.373 0.505212 10.1476 0.356249 9.95028C0.235657 9.79054 -2.22361e-05 9.45173 -3.80665e-07 9.04122C2.08822e-05 8.64147 0.222117 8.30495 0.338619 8.14118C0.458457 7.97271 0.600575 7.81155 0.688365 7.71199L0.726507 7.6686C0.832273 7.54733 2.51648 5.74005 4.151 3.98762C4.97338 3.10591 5.78982 2.23101 6.40066 1.57655L7.41647 0.488334C7.69915 0.185571 8.17404 0.16897 8.47681 0.451648C8.77957 0.734327 8.79578 1.209 8.5131 1.51176L7.49723 2.60003C6.88647 3.25442 6.07015 4.12919 5.24793 5.01073C4.42567 5.89231 3.59764 6.78052 2.96339 7.46185C2.64622 7.80255 2.37776 8.09126 2.18279 8.30146C2.08525 8.40661 2.00648 8.49171 1.94934 8.55368L1.88129 8.62775L1.85752 8.65392L1.8038 8.71523L1.80377 8.71526C1.71395 8.81755 1.63137 8.9116 1.56092 9.01065C1.555 9.01896 1.5495 9.02688 1.54438 9.0344L1.55342 9.04653Z" fill="#EA580C"/>
</svg>
