<svg width="9" height="18" viewBox="0 0 9 18" fill="none" xmlns="http://www.w3.org/2000/svg">
<path d="M7.16142 9.04653C7.08353 9.14971 6.98225 9.2532 6.89602 9.33838C6.79393 9.43923 5.10682 11.2416 3.4727 12.9888C2.64947 13.869 1.83176 14.7438 1.21987 15.3985L0.202144 16.4875C-0.0806398 16.7902 -0.0648193 17.2651 0.237846 17.5479C0.540512 17.8307 1.01519 17.8145 1.29797 17.5118L2.31574 16.4227C2.92756 15.7681 3.74515 14.8935 4.56822 14.0134C5.39133 13.1334 6.21977 12.248 6.85338 11.5719C7.17023 11.2338 7.43809 10.9483 7.63212 10.742L7.90051 10.4617C7.99036 10.373 8.20963 10.1476 8.35859 9.95028C8.47919 9.79054 8.71487 9.45173 8.71484 9.04122C8.71482 8.64147 8.49273 8.30495 8.37623 8.14118C8.25639 7.97271 8.11427 7.81155 8.02648 7.71199L7.98834 7.6686C7.88257 7.54733 6.19836 5.74005 4.56384 3.98762C3.74146 3.10591 2.92502 2.23101 2.31419 1.57655L1.29837 0.488334C1.01569 0.185571 0.540801 0.16897 0.238037 0.451648C-0.064727 0.734327 -0.0809357 1.209 0.201743 1.51176L1.21761 2.60003C1.82838 3.25442 2.64469 4.12919 3.46692 5.01073C4.28918 5.89231 5.11721 6.78052 5.75146 7.46185C6.06862 7.80255 6.33708 8.09126 6.53205 8.30146C6.62959 8.40661 6.70836 8.49171 6.7655 8.55368L6.83355 8.62775L6.85732 8.65392L6.91105 8.71523L6.91108 8.71526C7.00089 8.81755 7.08347 8.9116 7.15393 9.01065C7.15984 9.01896 7.16534 9.02688 7.17046 9.0344L7.16142 9.04653Z" fill="#EA580C"/>
</svg>
