<svg width="15" height="24" viewBox="0 0 15 24" fill="none" xmlns="http://www.w3.org/2000/svg">
<path fill-rule="evenodd" clip-rule="evenodd" d="M3.75 0C1.67893 0 0 1.67893 0 3.75V20.25C0 22.3211 1.67893 24 3.75 24H11.25C13.3211 24 15 22.3211 15 20.25V3.75C15 1.67893 13.3211 0 11.25 0H3.75ZM13.5 18V3.75C13.5 2.50736 12.4926 1.5 11.25 1.5H3.75C2.50736 1.5 1.5 2.50736 1.5 3.75V18H13.5ZM1.5 19.5H13.5V20.25C13.5 21.4926 12.4926 22.5 11.25 22.5H3.75C2.50736 22.5 1.5 21.4926 1.5 20.25V19.5Z" fill="#7C2D12"/>
</svg>
