<svg width="34" height="34" viewBox="0 0 34 34" fill="none" xmlns="http://www.w3.org/2000/svg">
<path fill-rule="evenodd" clip-rule="evenodd" d="M0.272137 16.7758C0.321613 7.51291 7.86139 0.0391494 17.124 0.0707787C26.375 0.055684 33.8965 7.52462 33.9459 16.7758L33.946 16.7901C33.8955 22.9585 30.4783 28.6064 25.0378 31.5139C19.7466 34.3415 13.364 34.1375 8.27422 31.0096L2.68081 32.7834C2.30287 32.9033 1.88964 32.8005 1.61185 32.5176C1.33406 32.2347 1.23887 31.8196 1.36561 31.4439L3.15849 26.1293C1.27476 23.3803 0.265824 20.1206 0.272124 16.7794L0.272137 16.7758ZM17.1193 2.17539C17.1212 2.1754 17.1231 2.1754 17.125 2.1754C17.1248 2.1754 17.1252 2.1754 17.125 2.1754C25.2151 2.16117 31.7942 8.69064 31.8413 16.7798C31.7946 22.1752 28.8048 27.1145 24.0458 29.6577C19.2848 32.202 13.514 31.9415 9.00159 28.9785C8.73682 28.8046 8.40782 28.7593 8.10589 28.855L4.02336 30.1497L5.32411 26.2939C5.43383 25.9687 5.37803 25.6104 5.1746 25.3339C3.35191 22.8568 2.37132 19.8606 2.37673 16.7852C2.42099 8.6833 9.01715 2.1467 17.1193 2.17539ZM13.189 8.47536C13.5571 8.66619 13.9487 8.98374 14.1608 9.47579C14.2617 9.7099 14.4024 10.0531 14.5512 10.4163C14.6621 10.687 14.7776 10.9688 14.8845 11.2247C15.0149 11.5368 15.1361 11.8194 15.2353 12.0346C15.2852 12.1429 15.3247 12.2233 15.3533 12.2772C15.3591 12.288 15.3638 12.2967 15.3675 12.3033C15.398 12.3437 15.4255 12.3863 15.4499 12.4307C15.7415 12.9621 15.7452 13.6041 15.461 14.1383C15.411 14.2375 15.3497 14.35 15.2667 14.4636C15.1752 14.5887 15.0827 14.6807 15.0064 14.7521C14.9655 14.7904 14.9258 14.8263 14.8827 14.8652C14.8009 14.9391 14.7066 15.0243 14.5671 15.1595C15.8028 17.0184 17.5393 18.4921 19.5779 19.4088C19.7788 19.1493 20.0464 18.7717 20.2328 18.4773C20.4847 18.0796 20.8745 17.7429 21.4279 17.6793C21.8595 17.6297 22.2433 17.7775 22.4148 17.8436L22.4256 17.8478C22.7817 17.9847 24.3589 18.752 25.0439 19.0852C25.1647 19.144 25.2578 19.1893 25.3115 19.2152C25.3516 19.2345 25.396 19.2556 25.4426 19.2777C25.584 19.3447 25.7461 19.4215 25.8716 19.4909C26.0244 19.5753 26.345 19.7605 26.5487 20.1097C26.607 20.2096 26.647 20.3153 26.6697 20.4226C26.9682 21.3147 26.8357 22.2974 26.3074 23.0798C24.9083 25.5108 22.4909 26.2839 20.0152 26.0278C17.5708 25.775 14.9665 24.5306 12.8072 22.8184C10.6475 21.1058 8.81183 18.8288 8.01815 16.3852C7.20728 13.8887 7.49495 11.2075 9.61794 8.96494C10.2661 8.25909 11.2593 8.08964 12.0013 8.14882C12.4002 8.18064 12.8168 8.28237 13.189 8.47536ZM24.7135 21.2617C24.7028 21.2566 24.6916 21.2512 24.6798 21.2455C24.6465 21.2295 24.6119 21.2132 24.5734 21.1949L24.5497 21.1836C24.5025 21.1613 24.4509 21.1367 24.3965 21.1105C24.3169 21.0721 24.1914 21.0111 24.0368 20.936C23.4043 20.6287 22.2848 20.0848 21.8296 19.8804C21.5546 20.2891 21.2027 20.7684 20.966 21.0329C20.749 21.2755 20.4147 21.5438 19.9301 21.6036C19.4993 21.6568 19.1205 21.5211 18.8399 21.3838C16.2535 20.2511 14.0711 18.3606 12.5812 15.9616L12.5673 15.9386C12.3057 15.4924 12.2427 14.9945 12.4314 14.5228C12.5618 14.1966 12.805 13.9464 12.8725 13.8769C12.8787 13.8706 12.8833 13.8658 12.8864 13.8626C12.8952 13.853 12.9042 13.8437 12.9134 13.8345C13.195 13.5529 13.3919 13.3752 13.4997 13.2779C13.5002 13.2775 13.5007 13.2771 13.5011 13.2767C13.4989 13.2726 13.4968 13.2686 13.4948 13.2649C13.4396 13.161 13.3815 13.0403 13.324 12.9156C13.2083 12.6647 13.0752 12.3536 12.9426 12.0361C12.8203 11.7434 12.7003 11.4504 12.5894 11.1795C12.4606 10.8649 12.3441 10.5802 12.2504 10.3608C12.2429 10.3561 12.2331 10.3504 12.2204 10.3438C12.141 10.3026 12.0068 10.2606 11.834 10.2468C11.6635 10.2332 11.4979 10.2507 11.3664 10.2896C11.2318 10.3295 11.1781 10.3774 11.1676 10.389L11.1516 10.4062C9.63303 12.0066 9.40836 13.8524 10.0198 15.7351C10.6494 17.6735 12.1741 19.6303 14.1149 21.1693C16.0561 22.7087 18.2924 23.7338 20.2317 23.9344C22.1259 24.1303 23.622 23.5507 24.4996 22.0014C24.5163 21.972 24.5343 21.9434 24.5537 21.9158C24.6886 21.7234 24.7438 21.4895 24.7135 21.2617Z" fill="#7C2D12"/>
</svg>
