<svg width="22" height="14" viewBox="0 0 22 14" fill="none" xmlns="http://www.w3.org/2000/svg">
<path fill-rule="evenodd" clip-rule="evenodd" d="M0.5 13C0.5 12.5858 0.835786 12.25 1.25 12.25H20.75C21.1642 12.25 21.5 12.5858 21.5 13C21.5 13.4142 21.1642 13.75 20.75 13.75H1.25C0.835786 13.75 0.5 13.4142 0.5 13Z" fill="#EA580C"/>
<path fill-rule="evenodd" clip-rule="evenodd" d="M0.5 7C0.5 6.58579 0.835786 6.25 1.25 6.25H20.75C21.1642 6.25 21.5 6.58579 21.5 7C21.5 7.41421 21.1642 7.75 20.75 7.75H1.25C0.835786 7.75 0.5 7.41421 0.5 7Z" fill="#EA580C"/>
<path fill-rule="evenodd" clip-rule="evenodd" d="M0.5 1C0.5 0.585786 0.835786 0.25 1.25 0.25H20.75C21.1642 0.25 21.5 0.585786 21.5 1C21.5 1.41421 21.1642 1.75 20.75 1.75H1.25C0.835786 1.75 0.5 1.41421 0.5 1Z" fill="#EA580C"/>
</svg>
