<svg width="24" height="24" viewBox="0 0 24 24" fill="none" xmlns="http://www.w3.org/2000/svg">
<path fill-rule="evenodd" clip-rule="evenodd" d="M0 12C0 5.37258 5.37258 0 12 0C18.6274 0 24 5.37258 24 12C24 18.6274 18.6274 24 12 24C5.37258 24 0 18.6274 0 12ZM12 1.5C6.20101 1.5 1.5 6.20101 1.5 12C1.5 17.799 6.20101 22.5 12 22.5C17.799 22.5 22.5 17.799 22.5 12C22.5 6.20101 17.799 1.5 12 1.5Z" fill="#EA580C"/>
<path fill-rule="evenodd" clip-rule="evenodd" d="M6.34737 8.36724C6.69684 8.14487 7.1604 8.24791 7.38276 8.59737L11.9992 15.8524H12.0008L16.6172 8.59737C16.8396 8.24791 17.3032 8.14487 17.6526 8.36724C18.0021 8.5896 18.1051 9.05316 17.8828 9.40263L13.2652 16.6596C12.9894 17.0915 12.5124 17.3529 12 17.3529C11.4876 17.3529 11.0106 17.0915 10.7348 16.6596L6.11724 9.40263C5.89487 9.05316 5.99791 8.5896 6.34737 8.36724Z" fill="#EA580C"/>
</svg>
