<svg width="25" height="24" viewBox="0 0 25 24" fill="none" xmlns="http://www.w3.org/2000/svg">
<path fill-rule="evenodd" clip-rule="evenodd" d="M0.990265 11.9084C1.02553 5.30652 6.39927 -0.0201675 13.0009 0.00237537C19.5943 -0.00838292 24.955 5.31487 24.9902 11.9084L24.9903 11.9185C24.9543 16.3149 22.5188 20.3403 18.6412 22.4125C14.8701 24.4278 10.3211 24.2824 6.6935 22.053L2.70697 23.3173C2.43761 23.4027 2.14309 23.3295 1.9451 23.1278C1.74712 22.9262 1.67927 22.6304 1.7696 22.3626L3.04743 18.5748C1.70485 16.6155 0.985765 14.2923 0.990255 11.911L0.990265 11.9084ZM12.9976 1.50237C12.9989 1.50238 13.0003 1.50238 13.0016 1.50238C13.0015 1.50238 13.0017 1.50238 13.0016 1.50238C18.7676 1.49224 23.4566 6.14592 23.4902 11.9112C23.4569 15.7566 21.3261 19.2769 17.9342 21.0895C14.5409 22.9029 10.428 22.7172 7.21191 20.6055C7.02321 20.4815 6.78872 20.4492 6.57353 20.5175L3.66383 21.4402L4.59091 18.6921C4.66911 18.4603 4.62933 18.2049 4.48434 18.0079C3.18528 16.2424 2.48639 14.107 2.49025 11.9151C2.52179 6.14069 7.22301 1.48192 12.9976 1.50237ZM10.1964 5.99248C10.4587 6.12849 10.7378 6.35481 10.889 6.70551C10.9609 6.87236 11.0612 7.11698 11.1672 7.37579C11.2463 7.56875 11.3286 7.7696 11.4048 7.95198C11.4977 8.17445 11.5841 8.37584 11.6548 8.52919C11.6904 8.60639 11.7185 8.66374 11.7389 8.70215C11.743 8.70985 11.7464 8.716 11.749 8.72075C11.7707 8.74954 11.7904 8.77987 11.8077 8.81153C12.0156 9.19023 12.0182 9.64785 11.8157 10.0286C11.78 10.0993 11.7363 10.1795 11.6772 10.2604C11.612 10.3496 11.546 10.4152 11.4917 10.4661C11.4625 10.4934 11.4342 10.5189 11.4035 10.5467C11.3452 10.5993 11.278 10.66 11.1786 10.7564C12.0593 12.0812 13.2969 13.1316 14.7499 13.785C14.8931 13.6 15.0838 13.3309 15.2166 13.1211C15.3962 12.8376 15.674 12.5976 16.0684 12.5523C16.376 12.5169 16.6495 12.6223 16.7718 12.6694L16.7795 12.6724C17.0333 12.77 18.1574 13.3168 18.6456 13.5543C18.7317 13.5962 18.7981 13.6285 18.8363 13.647C18.8649 13.6607 18.8965 13.6757 18.9297 13.6915C19.0305 13.7392 19.146 13.794 19.2355 13.8434C19.3444 13.9036 19.5729 14.0356 19.7181 14.2845C19.7597 14.3557 19.7881 14.431 19.8043 14.5075C20.0171 15.1433 19.9226 15.8437 19.5461 16.4014C18.549 18.134 16.826 18.6849 15.0615 18.5025C13.3194 18.3223 11.4632 17.4354 9.92425 16.215C8.38499 14.9944 7.07667 13.3716 6.511 11.63C5.93307 9.85064 6.13811 7.93971 7.6512 6.34141C8.11316 5.83834 8.821 5.71757 9.34988 5.75975C9.6342 5.78243 9.93109 5.85493 10.1964 5.99248ZM18.4101 15.1056C18.4025 15.1019 18.3945 15.098 18.386 15.094C18.3623 15.0826 18.3377 15.071 18.3103 15.058L18.2933 15.0499C18.2597 15.034 18.2229 15.0165 18.1842 14.9978C18.1274 14.9704 18.038 14.9269 17.9278 14.8734C17.477 14.6544 16.6791 14.2667 16.3547 14.1211C16.1587 14.4124 15.9079 14.754 15.7392 14.9425C15.5845 15.1154 15.3462 15.3066 15.0009 15.3492C14.6938 15.3871 14.4239 15.2904 14.2238 15.1926C12.3805 14.3853 10.8251 13.0379 9.76314 11.3281L9.75323 11.3117C9.5668 10.9936 9.52191 10.6388 9.6564 10.3026C9.74937 10.0702 9.92271 9.89178 9.9708 9.84229C9.97517 9.83779 9.97851 9.83435 9.98066 9.83204C9.98696 9.82526 9.99338 9.81859 9.99992 9.81205C10.2006 9.61132 10.341 9.48471 10.4178 9.41536C10.4182 9.41506 10.4185 9.41477 10.4188 9.41448C10.4172 9.41154 10.4157 9.40873 10.4143 9.40608C10.375 9.33204 10.3335 9.24602 10.2926 9.15713C10.2101 8.97829 10.1153 8.75656 10.0207 8.53027C9.93357 8.32168 9.84807 8.11283 9.76904 7.91978C9.67724 7.69556 9.59418 7.49267 9.5274 7.33629C9.52208 7.33294 9.51504 7.32884 9.50599 7.32415C9.44942 7.29482 9.35381 7.26483 9.23063 7.255C9.10911 7.24531 8.9911 7.25778 8.89734 7.28555C8.80141 7.31397 8.76319 7.34809 8.75567 7.35637L8.7443 7.36863C7.66195 8.50926 7.50182 9.82483 7.93764 11.1666C8.38634 12.5481 9.47302 13.9428 10.8563 15.0397C12.2398 16.1369 13.8337 16.8675 15.2158 17.0104C16.5659 17.15 17.6322 16.737 18.2577 15.6327C18.2695 15.6118 18.2824 15.5914 18.2962 15.5717C18.3924 15.4346 18.4317 15.2679 18.4101 15.1056Z" fill="#EA580C"/>
</svg>
