<svg width="22" height="22" viewBox="0 0 22 22" fill="none" xmlns="http://www.w3.org/2000/svg">
<path fill-rule="evenodd" clip-rule="evenodd" d="M21.0379 0.962087C21.404 1.3282 21.404 1.9218 21.0379 2.28791L2.28791 21.0379C1.9218 21.404 1.3282 21.404 0.962087 21.0379C0.595971 20.6718 0.595971 20.0782 0.962087 19.7121L19.7121 0.962087C20.0782 0.595971 20.6718 0.595971 21.0379 0.962087Z" fill="black"/>
<path fill-rule="evenodd" clip-rule="evenodd" d="M0.962087 0.962087C1.3282 0.595971 1.9218 0.595971 2.28791 0.962087L21.0379 19.7121C21.404 20.0782 21.404 20.6718 21.0379 21.0379C20.6718 21.404 20.0782 21.404 19.7121 21.0379L0.962087 2.28791C0.595971 1.9218 0.595971 1.3282 0.962087 0.962087Z" fill="black"/>
</svg>
